# xmcd CD database file
#
# Track frame offsets:
#	150
#	15002
#	38500
#	65985
#	90887
#	116052
#	144080
#	155165
#	172585
#
# Disc length: 2637 seconds
#
# Revision: 0
# Processed by: cddbd v1.5PL3 Copyright (c) Steve Scherf et al.
# Submitted via: CDex 1.51
#
DISCID=5e0a4b09
DTITLE=高崎　晃 - 輪
DYEAR=1996
DGENRE=Instrumental Rock
TTITLE0=Respirator
TTITLE1=Grope In The Dark
TTITLE2=Alien Summit
TTITLE3=Urban Nights
TTITLE4=Strangle Head
TTITLE5=The Green Song
TTITLE6=Space Communicaton
TTITLE7=A Chance Occurrence
TTITLE8=Ninja Draft
EXTD=YEAR: 1996
EXTT0=
EXTT1=
EXTT2=
EXTT3=
EXTT4=
EXTT5=
EXTT6=
EXTT7=
EXTT8=
PLAYORDER=
